<svg width="25" height="24" viewBox="0 0 25 24" fill="none" xmlns="http://www.w3.org/2000/svg">
<path d="M8.33337 18L12.3334 14.95L16.3334 18L14.8334 13.05L18.8334 10.2H13.9334L12.3334 5L10.7334 10.2H5.83337L9.83337 13.05L8.33337 18ZM12.3334 22C10.95 22 9.65004 21.7375 8.43337 21.2125C7.21671 20.6875 6.15837 19.975 5.25837 19.075C4.35837 18.175 3.64587 17.1167 3.12087 15.9C2.59587 14.6833 2.33337 13.3833 2.33337 12C2.33337 10.6167 2.59587 9.31667 3.12087 8.1C3.64587 6.88333 4.35837 5.825 5.25837 4.925C6.15837 4.025 7.21671 3.3125 8.43337 2.7875C9.65004 2.2625 10.95 2 12.3334 2C13.7167 2 15.0167 2.2625 16.2334 2.7875C17.45 3.3125 18.5084 4.025 19.4084 4.925C20.3084 5.825 21.0209 6.88333 21.5459 8.1C22.0709 9.31667 22.3334 10.6167 22.3334 12C22.3334 13.3833 22.0709 14.6833 21.5459 15.9C21.0209 17.1167 20.3084 18.175 19.4084 19.075C18.5084 19.975 17.45 20.6875 16.2334 21.2125C15.0167 21.7375 13.7167 22 12.3334 22Z" fill="#1D192B"/>
</svg>
